<?xml version="1.0" encoding="iso-8859-1"?>
<!-- Generator: Adobe Illustrator 19.0.0, SVG Export Plug-In . SVG Version: 6.00 Build 0)  -->
<svg version="1.1" id="Capa_1" xmlns="http://www.w3.org/2000/svg" xmlns:xlink="http://www.w3.org/1999/xlink" x="0px" y="0px"
	 viewBox="0 0 512.002 512.002" style="enable-background:new 0 0 512.002 512.002;" xml:space="preserve">
<path style="fill:#4D94AE;" d="M334.538,422.294H177.462l-10.157,47.211c-1.936,8.996,4.921,17.485,14.124,17.485h149.144
	c9.202,0,16.059-8.489,14.124-17.485L334.538,422.294z"/>
<path style="fill:#E7EEEF;" d="M487.03,262.596c0-127.594-103.436-231.029-231.029-231.029S24.97,135.001,24.97,262.596H487.03z"/>
<g>
	<path style="fill:#FFFFFF;" d="M122.944,225.11c-3.23,0-6.459-1.232-8.923-3.696L95.717,203.11c-4.928-4.928-4.928-12.918,0-17.846
		c4.928-4.928,12.919-4.928,17.846,0l18.304,18.304c4.928,4.928,4.928,12.918,0,17.846
		C129.403,223.878,126.173,225.11,122.944,225.11z"/>
	<path style="fill:#FFFFFF;" d="M308.817,151.059c-3.23,0-6.459-1.232-8.923-3.696l-18.304-18.304
		c-4.928-4.928-4.928-12.918,0-17.846c4.928-4.928,12.919-4.928,17.846,0l18.303,18.304c4.928,4.928,4.928,12.918,0,17.846
		C315.277,149.826,312.047,151.059,308.817,151.059z"/>
	<path style="fill:#FFFFFF;" d="M430.663,195.019c-3.23,0-6.459-1.232-8.923-3.696l-18.304-18.304
		c-4.928-4.928-4.928-12.918,0-17.846c4.928-4.928,12.919-4.927,17.846,0l18.303,18.304c4.928,4.928,4.928,12.918,0,17.846
		C437.123,193.786,433.893,195.019,430.663,195.019z"/>
	<path style="fill:#FFFFFF;" d="M193.066,108.941c0,3.23-1.232,6.459-3.696,8.923l-18.304,18.304
		c-4.928,4.928-12.918,4.928-17.846,0c-4.928-4.928-4.928-12.919,0-17.846l18.304-18.303c4.928-4.928,12.918-4.928,17.846,0
		C191.833,102.481,193.066,105.711,193.066,108.941z"/>
</g>
<path style="opacity:0.1;enable-background:new    ;" d="M256.001,31.565C128.406,31.565,24.971,135,24.971,262.595h66.894
	c0-110.072,74.292-202.779,175.464-230.75C263.575,31.663,259.799,31.565,256.001,31.565z"/>
<path style="opacity:0.1;enable-background:new    ;" d="M334.538,422.294H177.462l-6.937,32.243
	c26.662,8.176,55.446,12.501,85.475,12.501s58.813-4.326,85.476-12.501L334.538,422.294z"/>
<path style="fill:#4D94AE;" d="M27.064,219.007c-11.41,0-20.47,9.743-19.495,21.11c10.794,125.785,117.898,207.314,248.43,207.314
	s237.636-81.528,248.43-207.314c0.975-11.368-8.085-21.11-19.495-21.11H27.064z"/>
<path style="fill:#88DEDC;" d="M424.935,376.911L424.935,376.911c-18.66-18.66-48.913-18.66-67.574,0l0,0
	c-18.66,18.66-48.913,18.66-67.574,0l0,0c-18.66-18.66-48.913-18.66-67.574,0l0,0c-18.66,18.66-48.913,18.66-67.574,0l0,0
	c-18.66-18.66-48.913-18.66-67.574,0l0,0c-2.657,2.657-5.551,4.93-8.611,6.83c45.214,40.584,108.059,63.691,177.546,63.691
	s132.332-23.106,177.546-63.691C430.486,381.841,427.592,379.568,424.935,376.911z"/>
<path style="opacity:0.1;enable-background:new    ;" d="M112.286,240.118c-0.976-11.368,8.085-21.11,19.495-21.11H27.064
	c-11.41,0-20.47,9.743-19.495,21.11c10.794,125.785,117.898,207.314,248.43,207.314c17.961,0,35.474-1.552,52.358-4.542
	C202.537,424.149,121.595,348.595,112.286,240.118z"/>
<g>
	<path style="fill:#F3CE72;" d="M480.196,77.889l8.64,8.64c5.022,5.022,4.95,13.186-0.16,18.118L276.13,309.812
		c-3.712,3.583-9.61,3.531-13.258-0.117l-5.842-5.842c-3.648-3.648-3.7-9.546-0.117-13.258L462.078,78.049
		C467.01,72.939,475.174,72.867,480.196,77.889z"/>
	<path style="fill:#F3CE72;" d="M431.037,28.73l8.64,8.64c5.022,5.022,4.95,13.186-0.16,18.118L226.972,260.654
		c-3.712,3.583-9.61,3.531-13.258-0.117l-5.842-5.842c-3.648-3.648-3.7-9.546-0.117-13.258L412.919,28.891
		C417.852,23.781,426.015,23.709,431.037,28.73z"/>
</g>
<path d="M504.908,220.288c-4.175-4.549-9.783-7.515-15.814-8.457c-5.388-24.878-14.671-48.531-27.654-70.471l32.444-31.318
	c3.931-3.794,6.122-8.893,6.17-14.355c0.048-5.463-2.053-10.599-5.915-14.462l-8.64-8.64c-0.001-0.001-0.001-0.001-0.001-0.001
	c-3.82-3.82-8.884-5.916-14.278-5.916c-0.061,0-0.123,0.001-0.185,0.001c-5.462,0.048-10.56,2.24-14.354,6.17l-26.193,27.135
	c-4.142-4.441-8.466-8.737-12.938-12.857l27.176-26.233c3.931-3.794,6.121-8.892,6.17-14.354c0.048-5.463-2.053-10.599-5.916-14.463
	l-8.641-8.64c-3.862-3.863-8.967-5.961-14.462-5.915c-5.463,0.048-10.561,2.24-14.354,6.17l-31.58,32.716
	C339.62,35.231,298.287,24.064,256,24.064c-69.683,0-135.69,30.362-181.1,83.301c-2.697,3.144-2.334,7.879,0.81,10.576
	c1.415,1.213,3.151,1.807,4.879,1.807c2.113,0,4.213-0.888,5.696-2.617c42.555-49.612,104.414-78.067,169.714-78.067
	c38.395,0,75.947,9.82,109.196,28.466L226.219,211.507H38.363c5.773-24.735,15.665-48.122,29.491-69.631
	c2.24-3.484,1.231-8.125-2.253-10.364c-3.483-2.24-8.125-1.232-10.364,2.253c-15.454,24.038-26.316,50.275-32.332,78.067
	c-6.03,0.942-11.638,3.908-15.813,8.456c-5.086,5.542-7.635,13.003-6.995,20.471c2.722,31.715,11.429,61.446,25.879,88.365
	c13.899,25.891,32.799,48.649,56.178,67.642c24.138,19.61,52.539,34.604,83.564,44.458l-5.745,26.704
	c-1.402,6.514,0.196,13.223,4.383,18.407c4.186,5.184,10.41,8.156,17.073,8.156h149.144c6.663,0,12.887-2.973,17.073-8.157
	c4.187-5.183,5.784-11.892,4.383-18.406l-5.73-26.628c8.844-2.818,17.512-6.055,25.979-9.738c3.799-1.652,5.538-6.071,3.887-9.869
	c-1.652-3.798-6.072-5.54-9.869-3.886c-9.992,4.346-20.284,8.042-30.838,11.114c-0.12,0.034-0.24,0.067-0.357,0.106
	c-24.99,7.237-51.471,10.905-79.1,10.905c-62.503,0-120.883-19.464-164.388-54.809c-0.417-0.339-0.822-0.688-1.236-1.029
	c0.677-0.613,1.346-1.235,1.992-1.88c15.706-15.705,41.261-15.705,56.968,0c10.441,10.441,24.323,16.192,39.09,16.192
	c14.766,0,28.648-5.75,39.09-16.192c15.707-15.705,41.263-15.705,56.968,0c10.441,10.441,24.323,16.192,39.09,16.192
	c14.767,0,28.65-5.75,39.091-16.192c7.607-7.608,17.723-11.798,28.482-11.798c10.759,0,20.876,4.19,28.483,11.797
	c0.653,0.653,1.33,1.283,2.015,1.903c-8.483,6.976-17.608,13.429-27.368,19.295c-3.55,2.134-4.698,6.742-2.563,10.292
	c1.406,2.341,3.889,3.637,6.435,3.637c1.315,0,2.647-0.346,3.858-1.073c31.209-18.76,56.586-43.162,75.423-72.529
	c19.638-30.613,31.235-65.261,34.473-102.98C512.544,233.291,509.995,225.829,504.908,220.288z M174.637,471.084l5.528-25.694
	c24.144,6.275,49.656,9.543,75.836,9.543c26.339,0,51.714-3.178,75.855-9.455l5.51,25.606c0.443,2.061-0.063,4.185-1.388,5.826
	c-1.325,1.641-3.295,2.582-5.404,2.582H181.428c-2.109,0-4.079-0.941-5.404-2.582C174.699,475.269,174.193,473.146,174.637,471.084z
	 M473.639,211.507h-84.868l61.553-59.416C460.953,170.728,468.769,190.645,473.639,211.507z M467.474,83.258
	c0.977-1.012,2.289-1.576,3.694-1.589h0.048c1.389,0,2.692,0.54,3.676,1.523l8.64,8.64c0.994,0.994,1.535,2.316,1.523,3.723
	c-0.013,1.406-0.577,2.719-1.589,3.696l-36.708,35.433c-0.017,0.016-0.034,0.033-0.051,0.05L270.921,304.416
	c-0.763,0.736-1.997,0.727-2.746-0.023l-5.843-5.844c-0.75-0.75-0.762-1.982-0.024-2.745L467.474,83.258z M420.052,110.786
	l-97.224,100.721h-34.142l118.049-113.95C411.354,101.779,415.806,106.201,420.052,110.786z M213.15,246.645L382.64,71.059
	c0.011-0.012,0.023-0.023,0.034-0.035l35.642-36.924c0.977-1.012,2.289-1.576,3.694-1.588h0.048c1.389,0,2.691,0.54,3.675,1.523
	h0.001l8.64,8.639c0.994,0.995,1.535,2.317,1.523,3.723c-0.013,1.406-0.577,2.719-1.589,3.695L401.37,81.887
	c-0.004,0.004-0.008,0.007-0.012,0.011l-179.595,173.36c-0.763,0.736-1.995,0.726-2.746-0.024l-5.842-5.842
	C212.424,248.641,212.413,247.408,213.15,246.645z M496.958,239.476c-4.551,53.034-26.88,99.486-63.969,134.618
	c-0.951-0.791-1.876-1.613-2.751-2.487c-10.441-10.441-24.323-16.191-39.09-16.191c-14.767,0-28.648,5.75-39.09,16.191
	c-7.607,7.608-17.724,11.798-28.483,11.798c-10.76,0-20.875-4.19-28.483-11.798c-21.553-21.555-56.627-21.555-78.181,0
	c-15.706,15.705-41.261,15.706-56.968,0c-21.553-21.553-56.625-21.554-78.181,0c-0.869,0.869-1.788,1.686-2.733,2.472
	c-37.404-35.418-59.44-81.62-63.986-134.603c-0.287-3.342,0.814-6.555,3.1-9.045c2.323-2.53,5.491-3.924,8.922-3.924h2.007
	c0.01,0,0.021,0.002,0.031,0.002c0.011,0,0.022-0.001,0.033-0.002H211.74l-9.382,9.72c-6.381,6.61-6.287,17.274,0.21,23.771
	l5.842,5.842c3.287,3.287,7.64,4.935,11.995,4.935c4.253,0,8.509-1.572,11.775-4.725l40.965-39.542h35.203l-56.834,58.879
	c-6.381,6.61-6.287,17.273,0.21,23.77l5.843,5.844c3.287,3.287,7.639,4.934,11.994,4.934c4.254,0,8.51-1.572,11.776-4.725
	l91.891-88.701h109.635c0.011,0,0.022,0.002,0.033,0.002c0.01,0,0.021-0.001,0.031-0.002h2.006c3.431,0,6.6,1.394,8.922,3.924
	C496.143,232.922,497.245,236.134,496.958,239.476z"/>
<g>
</g>
<g>
</g>
<g>
</g>
<g>
</g>
<g>
</g>
<g>
</g>
<g>
</g>
<g>
</g>
<g>
</g>
<g>
</g>
<g>
</g>
<g>
</g>
<g>
</g>
<g>
</g>
<g>
</g>
</svg>
